# Blender v2.82 (sub 7) OBJ File: 'Bit-Bot.blend'
# www.blender.org
mtllib Bit-Bot.mtl
o Head_Cube
v 1.000000 6.512747 0.471473
v 1.000000 4.512747 0.471473
v -1.000000 6.512747 0.471473
v -1.000000 4.512747 0.471473
v 1.000000 6.512747 -0.616795
v 1.000000 4.512747 -0.616795
v -1.000000 6.512747 -0.616795
v -1.000000 4.512747 -0.616795
v 0.402192 5.914938 -1.563560
v 0.402192 5.110555 -1.563560
v -0.402192 5.914938 -1.563560
v -0.402192 5.110555 -1.563560
vt 0.625000 0.500000
vt 0.875000 0.500000
vt 0.875000 0.750000
vt 0.625000 0.750000
vt 0.375000 0.750000
vt 0.625000 1.000000
vt 0.375000 1.000000
vt 0.125000 0.500000
vt 0.125000 0.750000
vt 0.125000 0.750000
vt 0.125000 0.500000
vt 0.375000 0.500000
vt 0.375000 0.250000
vt 0.625000 0.250000
vt 0.375000 0.000000
vt 0.625000 0.000000
vt 0.625000 0.250000
vt 0.375000 0.250000
vt 0.875000 0.500000
vt 0.875000 0.750000
vt 0.625000 1.000000
vt 0.375000 1.000000
vn 0.0000 1.0000 0.0000
vn -1.0000 0.0000 0.0000
vn 0.0000 -0.8455 -0.5339
vn 0.0000 -1.0000 0.0000
vn -0.0000 0.0000 1.0000
vn 1.0000 0.0000 0.0000
vn 0.0000 0.0000 -1.0000
vn 0.0000 0.8455 -0.5339
vn 0.8455 0.0000 -0.5339
vn -0.8455 0.0000 -0.5339
usemtl Material
s off
f 1/1/1 5/2/1 7/3/1 3/4/1
f 4/5/2 3/4/2 7/6/2 8/7/2
f 6/8/3 8/9/3 12/10/3 10/11/3
f 6/8/4 2/12/4 4/5/4 8/9/4
f 2/12/5 1/1/5 3/4/5 4/5/5
f 6/13/6 5/14/6 1/1/6 2/12/6
f 12/15/7 11/16/7 9/17/7 10/18/7
f 7/3/8 5/2/8 9/19/8 11/20/8
f 5/14/9 6/13/9 10/18/9 9/17/9
f 8/7/10 7/6/10 11/21/10 12/22/10
o Body_Cube.001
v 0.711233 4.363363 -0.836718
v 0.711233 2.257349 -0.836718
v -0.714590 4.363363 -0.836718
v -0.714590 2.257349 -0.836718
v 0.711233 4.363363 0.156268
v 0.711233 2.257349 0.156268
v -0.714590 4.363363 0.156268
v -0.714590 2.257349 0.156268
v 0.294997 1.683849 -0.542309
v -0.298354 1.683849 -0.542309
v 0.294997 1.683849 -0.138141
v -0.298354 1.683849 -0.138141
vt 0.375000 0.000000
vt 0.625000 0.000000
vt 0.625000 0.250000
vt 0.375000 0.250000
vt 0.625000 0.500000
vt 0.375000 0.500000
vt 0.625000 0.750000
vt 0.375000 0.750000
vt 0.625000 1.000000
vt 0.375000 1.000000
vt 0.125000 0.500000
vt 0.125000 0.750000
vt 0.625000 0.250000
vt 0.625000 0.500000
vt 0.875000 0.500000
vt 0.875000 0.750000
vt 0.625000 0.750000
vt 0.625000 0.000000
vt 0.625000 1.000000
vn 0.0000 0.0000 -1.0000
vn -1.0000 -0.0000 0.0000
vn -0.0000 -0.0000 1.0000
vn 1.0000 0.0000 0.0000
vn 0.0000 1.0000 0.0000
vn -0.8093 -0.5874 0.0000
vn 0.0000 -1.0000 0.0000
vn -0.0000 -0.4567 0.8896
vn 0.0000 -0.4567 -0.8896
vn 0.8093 -0.5874 0.0000
usemtl None
s off
f 13/23/11 14/24/11 16/25/11 15/26/11
f 15/26/12 16/25/12 20/27/12 19/28/12
f 19/28/13 20/27/13 18/29/13 17/30/13
f 17/30/14 18/29/14 14/31/14 13/32/14
f 15/33/15 19/28/15 17/30/15 13/34/15
f 20/27/16 16/25/16 22/35/16 24/36/16
f 24/36/17 22/37/17 21/38/17 23/39/17
f 18/29/18 20/27/18 24/36/18 23/39/18
f 16/25/19 14/24/19 21/40/19 22/35/19
f 14/31/20 18/29/20 23/39/20 21/41/20
o Screen_Cube.002
v -0.848697 4.693880 -0.757142
v -0.848697 6.326438 -0.757142
v 0.845340 4.693880 -0.757142
v 0.845340 6.326438 -0.757142
v -0.848697 4.693880 0.621052
v -0.848697 6.326438 0.621052
v 0.845340 4.693880 0.621052
v 0.845340 6.326438 0.621052
vt 0.375000 0.000000
vt 0.625000 0.000000
vt 0.625000 0.250000
vt 0.375000 0.250000
vt 0.625000 0.500000
vt 0.375000 0.500000
vt 0.625000 0.750000
vt 0.375000 0.750000
vt 0.625000 1.000000
vt 0.375000 1.000000
vt 0.125000 0.500000
vt 0.125000 0.750000
vt 0.875000 0.500000
vt 0.875000 0.750000
vn 0.0000 0.0000 -1.0000
vn 1.0000 0.0000 0.0000
vn -0.0000 0.0000 1.0000
vn -1.0000 0.0000 -0.0000
vn 0.0000 -1.0000 -0.0000
vn 0.0000 1.0000 -0.0000
usemtl None
s off
f 25/42/21 26/43/21 28/44/21 27/45/21
f 27/45/22 28/44/22 32/46/22 31/47/22
f 31/47/23 32/46/23 30/48/23 29/49/23
f 29/49/24 30/48/24 26/50/24 25/51/24
f 27/52/25 31/47/25 29/49/25 25/53/25
f 32/46/26 28/54/26 26/55/26 30/48/26
o LeftArm_Cube.003
v -2.493333 4.323551 0.072583
v -0.850730 4.329423 0.072583
v -2.492270 4.026078 0.072583
v -0.849666 4.031950 0.072583
v -2.493333 4.323551 -0.452810
v -0.850730 4.329423 -0.452810
v -2.492270 4.026078 -0.452810
v -0.849666 4.031950 -0.452810
vt 0.375000 0.000000
vt 0.375000 0.250000
vt 0.625000 0.250000
vt 0.625000 0.000000
vt 0.375000 0.500000
vt 0.625000 0.500000
vt 0.375000 0.750000
vt 0.625000 0.750000
vt 0.375000 1.000000
vt 0.625000 1.000000
vt 0.125000 0.500000
vt 0.125000 0.750000
vt 0.875000 0.750000
vt 0.875000 0.500000
vn -0.0000 -0.0000 1.0000
vn 0.0036 -1.0000 0.0000
vn 0.0000 0.0000 -1.0000
vn -0.0036 1.0000 0.0000
vn -1.0000 -0.0036 0.0000
vn 1.0000 0.0036 0.0000
usemtl None
s off
f 33/56/27 35/57/27 36/58/27 34/59/27
f 35/57/28 39/60/28 40/61/28 36/58/28
f 39/60/29 37/62/29 38/63/29 40/61/29
f 37/62/30 33/64/30 34/65/30 38/63/30
f 35/66/31 33/67/31 37/62/31 39/60/31
f 40/61/32 38/63/32 34/68/32 36/69/32
o RightAr_Cube.004
v 0.828522 4.334123 0.105422
v 2.471126 4.339994 0.105422
v 0.829586 4.036650 0.105422
v 2.472189 4.042521 0.105422
v 0.828522 4.334123 -0.419971
v 2.471126 4.339994 -0.419971
v 0.829586 4.036650 -0.419971
v 2.472189 4.042521 -0.419971
vt 0.375000 0.000000
vt 0.375000 0.250000
vt 0.625000 0.250000
vt 0.625000 0.000000
vt 0.375000 0.500000
vt 0.625000 0.500000
vt 0.375000 0.750000
vt 0.625000 0.750000
vt 0.375000 1.000000
vt 0.625000 1.000000
vt 0.125000 0.500000
vt 0.125000 0.750000
vt 0.875000 0.750000
vt 0.875000 0.500000
vn -0.0000 -0.0000 1.0000
vn 0.0036 -1.0000 0.0000
vn 0.0000 0.0000 -1.0000
vn -0.0036 1.0000 0.0000
vn -1.0000 -0.0036 0.0000
vn 1.0000 0.0036 0.0000
usemtl None
s off
f 41/70/33 43/71/33 44/72/33 42/73/33
f 43/71/34 47/74/34 48/75/34 44/72/34
f 47/74/35 45/76/35 46/77/35 48/75/35
f 45/76/36 41/78/36 42/79/36 46/77/36
f 43/80/37 41/81/37 45/76/37 47/74/37
f 48/75/38 46/77/38 42/82/38 44/83/38
