# Blender v2.91.0 OBJ File: 'face.blend'
# www.blender.org
mtllib face.mtl
o robotLow
v -0.806488 2.305248 0.367943
v -0.806488 2.305248 -1.769354
v -1.208461 2.232583 -1.741091
v -1.208461 2.232583 0.396205
v -1.253596 1.838130 0.367943
v -1.253596 1.838130 -1.769354
v 1.738769 1.838131 -1.769354
v 1.738768 2.305248 -1.769354
v 2.144881 2.249375 -1.743428
v 2.144881 1.782258 -1.743428
v -0.806487 -0.278752 -1.769354
v -0.806487 -0.278752 0.367943
v -1.191321 -0.247202 0.378832
v -1.191321 -0.247202 -1.758464
v -0.806488 1.838130 0.367943
v 2.144881 2.249375 0.393868
v 2.255814 1.838131 0.367943
v 1.738768 1.838131 0.367943
v 1.706193 2.305248 0.367943
v 1.738769 -0.278752 -1.769354
v 1.738769 -0.278752 0.367943
v -0.806488 1.838130 -1.769354
v 2.167938 -0.228760 -1.742897
v 2.167938 -0.228760 0.394399
v -0.806487 0.140085 -1.769354
v 1.738769 0.140085 -1.769354
v 2.255814 0.140086 0.367943
v 1.738769 0.140085 0.367943
v -1.253596 0.140085 -1.769354
v -0.806487 0.140085 0.367943
v 2.255814 0.140086 -1.769354
v -1.253596 0.140085 0.367943
v -0.806488 1.838130 0.244706
v 1.738768 1.838131 0.244706
v 1.738769 0.140085 0.244706
v -0.806487 0.140085 0.244706
v -0.609023 -2.139926 -1.857898
v -0.609023 -0.628988 -1.857898
v 1.528273 -0.628988 -1.857898
v 1.528273 -2.139926 -1.857898
v 1.528273 -0.628988 0.279399
v 1.528273 -2.139926 0.279399
v -0.609024 -0.628988 0.279399
v -0.609023 -2.139926 0.279399
v -0.342011 -2.139926 0.279399
v 1.297214 -2.139926 0.279399
v -0.609023 -3.995718 -1.857898
v 1.528274 -3.995718 -1.857898
v 1.135175 -4.730623 -1.464800
v -0.215925 -4.730623 -1.464800
v 1.135175 -4.730623 -0.113699
v -0.215925 -4.730623 -0.113699
v 1.528273 -3.995718 0.279399
v -0.609023 -3.995718 0.279399
v -1.980770 -3.571393 -1.328857
v -1.811497 -1.040763 -1.159583
v -1.149015 -1.040763 -1.159583
v -0.979741 -3.571393 -1.328857
v -1.149015 -1.040763 -0.497101
v -0.979741 -3.571393 -0.327829
v -1.811497 -1.040763 -0.497101
v -1.980770 -3.571393 -0.327829
v 1.904259 -3.605807 -1.286442
v 2.065224 -1.075176 -1.125477
v 2.757514 -1.075176 -1.125477
v 2.918479 -3.605806 -1.286442
v 2.757514 -1.075176 -0.433189
v 2.918479 -3.605806 -0.272223
v 2.065224 -1.075176 -0.433189
v 1.904259 -3.605807 -0.272224
v -0.609023 -3.717564 0.279399
v -0.609023 -2.511414 0.279399
v 1.528273 -3.690659 0.279399
v 1.528273 -2.458110 0.279399
v 1.528273 -3.690659 0.420727
v -0.609023 -3.717564 0.420726
v 1.528273 -2.458110 0.420727
v 1.297214 -2.139926 0.420727
v -0.342011 -2.139926 0.420726
v -0.609023 -2.511414 0.420726
vt 0.625000 0.718149
vt 0.875000 0.718149
vt 0.875000 0.750000
vt 0.625000 0.750000
vt 0.579807 0.750000
vt 0.625000 1.000000
vt 0.579807 1.000000
vt 0.579807 0.213167
vt 0.625000 0.213167
vt 0.625000 0.250000
vt 0.579807 0.250000
vt 0.125000 0.718149
vt 0.375000 0.718149
vt 0.375000 0.750000
vt 0.125000 0.750000
vt 0.579807 0.718149
vt 0.625000 0.500000
vt 0.579807 0.500000
vt 0.579807 0.536833
vt 0.625000 0.536833
vt 0.125000 0.536833
vt 0.375000 0.536833
vt 0.579807 0.000000
vt 0.625000 0.000000
vt 0.625000 0.031851
vt 0.579807 0.031851
vt 0.875000 0.536833
vt 0.875000 0.500000
vt 0.125000 0.500000
vt 0.375000 0.500000
vt 0.375000 0.031851
vt 0.415522 0.031851
vt 0.415522 0.213167
vt 0.375000 0.213167
vt 0.415522 0.500000
vt 0.415522 0.536833
vt 0.375000 0.000000
vt 0.415522 0.000000
vt 0.415522 0.718149
vt 0.375000 0.250000
vt 0.415522 0.250000
vt 0.415522 0.750000
vt 0.415522 1.000000
vt 0.375000 1.000000
vt 0.579807 0.718149
vt 0.579807 0.536833
vt 0.415522 0.536833
vt 0.415522 0.718149
vt 0.512804 0.000000
vt 0.625000 0.000000
vt 0.625000 0.250000
vt 0.512804 0.250000
vt 0.625000 0.500000
vt 0.512804 0.500000
vt 0.625000 0.750000
vt 0.512804 0.750000
vt 0.512804 0.718767
vt 0.512804 0.527027
vt 0.625000 1.000000
vt 0.512804 1.000000
vt 0.375000 0.000000
vt 0.375000 0.250000
vt 0.375000 0.250000
vt 0.375000 0.000000
vt 0.875000 0.500000
vt 0.875000 0.750000
vt 0.125000 0.500000
vt 0.375000 0.500000
vt 0.375000 0.750000
vt 0.125000 0.750000
vt 0.375000 0.500000
vt 0.375000 0.750000
vt 0.375000 1.000000
vt 0.375000 1.000000
vt 0.375000 0.000000
vt 0.625000 0.000000
vt 0.625000 0.250000
vt 0.375000 0.250000
vt 0.625000 0.500000
vt 0.375000 0.500000
vt 0.625000 0.750000
vt 0.375000 0.750000
vt 0.625000 1.000000
vt 0.375000 1.000000
vt 0.125000 0.500000
vt 0.125000 0.750000
vt 0.875000 0.500000
vt 0.875000 0.750000
vt 0.375000 0.000000
vt 0.625000 0.000000
vt 0.625000 0.250000
vt 0.375000 0.250000
vt 0.625000 0.500000
vt 0.375000 0.500000
vt 0.625000 0.750000
vt 0.375000 0.750000
vt 0.625000 1.000000
vt 0.375000 1.000000
vt 0.125000 0.500000
vt 0.125000 0.750000
vt 0.875000 0.500000
vt 0.875000 0.750000
vt 0.395655 0.750000
vt 0.485219 0.750000
vt 0.397652 0.500000
vt 0.489177 0.500000
vt 0.397652 0.500000
vt 0.395655 0.750000
vt 0.489177 0.500000
vt 0.512804 0.527027
vt 0.512804 0.718767
vt 0.485219 0.750000
vn -0.1779 0.9841 -0.0000
vn -0.9935 0.1137 -0.0000
vn 0.0637 0.0000 -0.9980
vn -0.0817 -0.9967 0.0000
vn 0.0362 -0.0347 0.9987
vn 0.9916 0.1261 -0.0275
vn -0.0000 -0.0000 1.0000
vn 0.0000 -1.0000 -0.0000
vn -0.0362 0.0347 -0.9987
vn -0.0000 1.0000 0.0000
vn 0.1311 0.9914 0.0010
vn 0.1157 -0.9933 0.0000
vn -0.0291 -0.0342 0.9990
vn 0.0000 0.0000 -1.0000
vn -0.0299 0.0369 0.9989
vn -0.0136 -0.0146 -0.9998
vn 0.9728 -0.2318 0.0000
vn 0.0136 0.0146 0.9998
vn 0.0299 -0.0369 -0.9989
vn -0.9873 -0.1588 -0.0000
vn 0.9991 0.0334 -0.0265
vn 0.0286 0.0087 -0.9996
vn -1.0000 -0.0000 -0.0000
vn 1.0000 0.0000 0.0000
vn 0.0000 -0.4717 -0.8818
vn 0.0000 -0.4717 0.8818
vn -0.8818 -0.4717 -0.0000
vn 0.8818 -0.4717 0.0000
vn 0.0000 0.0667 -0.9978
vn 0.9978 0.0667 0.0000
vn -0.0000 0.0667 0.9978
vn -0.9978 0.0667 -0.0000
vn 0.0000 0.0635 -0.9980
vn 0.9980 0.0635 0.0000
vn -0.0000 0.0635 0.9980
vn -0.9980 0.0635 0.0000
vn 0.0126 -0.9999 0.0000
vn -0.8120 0.5836 0.0000
vn 0.8092 0.5876 0.0000
usemtl robot2:Material
s 1
f 1/1/1 2/2/1 3/3/1 4/4/1
f 5/5/2 4/4/2 3/6/2 6/7/2
f 7/8/3 8/9/3 9/10/3 10/11/3
f 11/12/4 12/13/4 13/14/4 14/15/4
f 15/16/5 1/1/5 4/4/5 5/5/5
f 10/11/6 9/10/6 16/17/6 17/18/6
f 18/19/7 19/20/7 1/1/7 15/16/7
f 20/21/8 21/22/8 12/13/8 11/12/8
f 6/23/9 3/24/9 2/25/9 22/26/9
f 19/20/10 8/27/10 2/2/10 1/1/10
f 16/17/11 9/28/11 8/27/11 19/20/11
f 23/29/12 24/30/12 21/22/12 20/21/12
f 17/18/13 16/17/13 19/20/13 18/19/13
f 22/26/14 2/25/14 8/9/14 7/8/14
f 11/31/14 25/32/14 26/33/14 20/34/14
f 24/30/15 27/35/15 28/36/15 21/22/15
f 14/37/16 29/38/16 25/32/16 11/31/16
f 21/22/7 28/36/7 30/39/7 12/13/7
f 23/40/17 31/41/17 27/35/17 24/30/17
f 12/13/18 30/39/18 32/42/18 13/14/18
f 20/34/19 26/33/19 31/41/19 23/40/19
f 13/14/20 32/42/20 29/43/20 14/44/20
f 25/32/14 22/26/14 7/8/14 26/33/14
f 27/35/7 17/18/7 18/19/7 28/36/7
f 29/38/14 6/23/14 22/26/14 25/32/14
f 18/19/8 15/16/8 33/45/8 34/46/8
f 31/41/21 10/11/21 17/18/21 27/35/21
f 30/39/7 15/16/7 5/5/7 32/42/7
f 26/33/22 7/8/22 10/11/22 31/41/22
f 32/42/23 5/5/23 6/7/23 29/43/23
f 35/47/7 34/46/7 33/45/7 36/48/7
f 28/36/23 18/19/23 34/46/23 35/47/23
f 15/16/24 30/39/24 36/48/24 33/45/24
f 30/39/10 28/36/10 35/47/10 36/48/10
f 37/49/14 38/50/14 39/51/14 40/52/14
f 40/52/24 39/51/24 41/53/24 42/54/24
f 42/54/7 41/53/7 43/55/7 44/56/7 45/57/7 46/58/7
f 44/56/23 43/55/23 38/59/23 37/60/23
f 47/61/25 48/62/25 49/63/25 50/64/25
f 41/53/10 39/65/10 38/66/10 43/55/10
f 49/67/8 51/68/8 52/69/8 50/70/8
f 53/71/26 54/72/26 52/69/26 51/68/26
f 54/72/27 47/73/27 50/74/27 52/69/27
f 48/62/28 53/71/28 51/68/28 49/63/28
f 55/75/29 56/76/29 57/77/29 58/78/29
f 58/78/30 57/77/30 59/79/30 60/80/30
f 60/80/31 59/79/31 61/81/31 62/82/31
f 62/82/32 61/81/32 56/83/32 55/84/32
f 58/85/8 60/80/8 62/82/8 55/86/8
f 59/79/10 57/87/10 56/88/10 61/81/10
f 63/89/33 64/90/33 65/91/33 66/92/33
f 66/92/34 65/91/34 67/93/34 68/94/34
f 68/94/35 67/93/35 69/95/35 70/96/35
f 70/96/36 69/95/36 64/97/36 63/98/36
f 66/99/8 68/94/8 70/96/8 63/100/8
f 67/93/10 65/101/10 64/102/10 69/95/10
f 54/72/23 71/103/23 72/104/23 44/56/23 37/60/23 47/73/23
f 53/71/7 73/105/7 71/103/7 54/72/7
f 48/62/24 40/52/24 42/54/24 74/106/24 73/105/24 53/71/24
f 47/61/14 37/49/14 40/52/14 48/62/14
f 72/104/7 45/57/7 44/56/7
f 46/58/7 74/106/7 42/54/7
f 71/103/37 73/105/37 75/107/37 76/108/37
f 76/108/7 75/107/7 77/109/7 78/110/7 79/111/7 80/112/7
f 72/104/23 71/103/23 76/108/23 80/112/23
f 45/57/38 72/104/38 80/112/38 79/111/38
f 73/105/24 74/106/24 77/109/24 75/107/24
f 74/106/39 46/58/39 78/110/39 77/109/39
f 46/58/10 45/57/10 79/111/10 78/110/10
o back_screen_Cube.001
v 1.920815 2.018860 0.419061
v -0.938432 0.107543 0.419060
v 1.920815 0.107543 0.419061
v -0.938432 2.018860 0.419060
v 0.491191 2.201195 0.419060
v 0.491191 -0.074793 0.419060
v -1.211198 1.063201 0.419060
v 2.193581 1.063201 0.419060
v 0.929467 -0.071929 0.419060
v 1.332791 -0.051886 0.419061
v 1.669465 0.002402 0.419060
v 2.189298 0.770227 0.419060
v 2.159314 0.500618 0.419060
v 2.078101 0.275562 0.419060
v 0.052915 2.198332 0.419060
v -0.350409 2.178288 0.419061
v -0.687083 2.124000 0.419060
v -1.206915 0.770227 0.419060
v -1.176932 0.500618 0.419061
v -1.095718 0.275562 0.419060
v 1.669466 2.124000 0.419061
v 1.332791 2.178289 0.419060
v 0.929467 2.198332 0.419060
v -0.687083 0.002402 0.419060
v -0.350409 -0.051886 0.419060
v 0.052915 -0.071929 0.419060
v -1.095718 1.850841 0.419060
v -1.176931 1.625785 0.419060
v -1.206915 1.356175 0.419060
v 2.078101 1.850841 0.419060
v 2.159314 1.625785 0.419060
v 2.189297 1.356175 0.419060
vt 0.000000 0.000000
vt 0.000000 0.000000
vt 0.000000 0.000000
vt 0.000000 0.000000
vt 0.000000 0.000000
vt 0.000000 0.000000
vt 0.000000 0.000000
vt 0.000000 0.000000
vt 0.000000 0.000000
vt 0.000000 0.000000
vt 0.000000 0.000000
vt 0.000000 0.000000
vt 0.000000 0.000000
vt 0.000000 0.000000
vt 0.000000 0.000000
vt 0.000000 0.000000
vt 0.000000 0.000000
vt 0.000000 0.000000
vt 0.000000 0.000000
vt 0.000000 0.000000
vt 0.000000 0.000000
vt 0.000000 0.000000
vt 0.000000 0.000000
vt 0.000000 0.000000
vt 0.000000 0.000000
vt 0.000000 0.000000
vt 0.000000 0.000000
vt 0.000000 0.000000
vt 0.000000 0.000000
vt 0.000000 0.000000
vt 0.000000 0.000000
vt 0.000000 0.000000
vn -0.0000 -0.0000 1.0000
usemtl sd
s off
f 89/113/40 90/114/40 91/115/40 83/116/40 94/117/40 93/118/40 92/119/40 88/120/40 112/121/40 111/122/40 110/123/40 81/124/40 101/125/40 102/126/40 103/127/40 85/128/40 95/129/40 96/130/40 97/131/40 84/132/40 107/133/40 108/134/40 109/135/40 87/136/40 98/137/40 99/138/40 100/139/40 82/140/40 104/141/40 105/142/40 106/143/40 86/144/40
o right_eye_Plane
v -0.335128 0.591068 0.478758
v -0.068651 0.591068 0.478758
v -0.335128 1.606985 0.478758
v -0.068651 1.606985 0.478758
vt 0.000000 0.000000
vt 1.000000 0.000000
vt 1.000000 1.000000
vt 0.000000 1.000000
vn 0.0000 -0.0000 1.0000
usemtl blank
s off
f 113/145/41 114/146/41 116/147/41 115/148/41
o left_eye_Plane
v 1.035750 0.599984 0.478758
v 1.296634 0.599984 0.478758
v 1.035750 1.594582 0.478758
v 1.296634 1.594582 0.478758
vt 0.000000 0.000000
vt 1.000000 0.000000
vt 1.000000 1.000000
vt 0.000000 1.000000
vn 0.0000 -0.0000 1.0000
usemtl blank
s off
f 117/149/42 118/150/42 120/151/42 119/152/42
o front_screen/led_display_Cube.002
v 1.920815 2.018860 0.518963
v -0.938432 0.107543 0.518963
v 1.920815 0.107543 0.518963
v -0.938432 2.018860 0.518963
v 0.491191 2.201195 0.518963
v 0.491191 -0.074793 0.518963
v -1.211198 1.063201 0.518963
v 2.193581 1.063201 0.518963
v 0.929467 -0.071929 0.518963
v 1.332791 -0.051886 0.518963
v 1.669465 0.002402 0.518963
v 2.189298 0.770227 0.518963
v 2.159314 0.500618 0.518963
v 2.078101 0.275562 0.518963
v 0.052915 2.198332 0.518963
v -0.350409 2.178288 0.518963
v -0.687083 2.124000 0.518963
v -1.206915 0.770227 0.518963
v -1.176932 0.500618 0.518963
v -1.095718 0.275562 0.518963
v 1.669466 2.124000 0.518963
v 1.332791 2.178289 0.518963
v 0.929467 2.198332 0.518963
v -0.687083 0.002402 0.518963
v -0.350409 -0.051886 0.518963
v 0.052915 -0.071929 0.518963
v -1.095718 1.850841 0.518963
v -1.176931 1.625785 0.518963
v -1.206915 1.356175 0.518963
v 2.078101 1.850841 0.518963
v 2.159314 1.625785 0.518963
v 2.189297 1.356175 0.518963
vt 0.547513 0.415325
vt 0.591331 0.417503
vt 0.627908 0.423401
vt 0.655215 0.434823
vt 0.672303 0.453077
vt 0.681126 0.477528
vt 0.684383 0.506819
vt 0.684849 0.538648
vt 0.684383 0.570477
vt 0.681126 0.599768
vt 0.672303 0.624218
vt 0.655215 0.642472
vt 0.627908 0.653895
vt 0.591331 0.659793
vt 0.547513 0.661970
vt 0.499898 0.662282
vt 0.452283 0.661970
vt 0.408465 0.659793
vt 0.371888 0.653895
vt 0.344581 0.642472
vt 0.327493 0.624218
vt 0.318670 0.599768
vt 0.315413 0.570477
vt 0.314947 0.538648
vt 0.315413 0.506819
vt 0.318670 0.477528
vt 0.327493 0.453077
vt 0.344581 0.434823
vt 0.371888 0.423401
vt 0.408465 0.417503
vt 0.452283 0.415325
vt 0.499898 0.415014
vn 0.0000 0.0000 1.0000
usemtl screenn
s 1
f 129/153/43 130/154/43 131/155/43 123/156/43 134/157/43 133/158/43 132/159/43 128/160/43 152/161/43 151/162/43 150/163/43 121/164/43 141/165/43 142/166/43 143/167/43 125/168/43 135/169/43 136/170/43 137/171/43 124/172/43 147/173/43 148/174/43 149/175/43 127/176/43 138/177/43 139/178/43 140/179/43 122/180/43 144/181/43 145/182/43 146/183/43 126/184/43
o moving_pane_Plane.001
v -0.820344 1.927300 0.438435
v 1.755716 1.927300 0.438435
v -0.820344 0.216643 0.438435
v 1.755716 0.216643 0.438435
vt 0.000000 0.000000
vt 1.000000 0.000000
vt 1.000000 1.000000
vt 0.000000 1.000000
vn 0.0000 -0.0000 -1.0000
usemtl sd
s off
f 153/185/44 154/186/44 156/187/44 155/188/44
