# This file uses centimeters as units for non-parametric coordinates.

mtllib RobotCellsLow.mtl
g default
v 0.293840 0.046060 -0.501469
v 0.040140 0.046060 -0.501469
v 0.293840 0.570095 -0.501469
v 0.040140 0.570095 -0.501469
v 0.040140 0.046060 -0.691469
v 0.040140 0.570095 -0.691469
v 0.293840 0.046060 -0.691469
v 0.293840 0.570095 -0.691469
vt 0.344129 0.859521
vt 0.233374 0.667071
vt 0.614741 0.458813
vt 0.614741 0.398165
vt 0.420046 0.732407
vt 0.480694 0.732407
vt 0.607894 0.396298
vt 0.607894 0.456946
vt 0.660161 0.398165
vt 0.369645 0.732168
vt 0.415065 0.732168
vt 0.415065 0.857440
vt 0.369645 0.857440
vt 0.480694 0.857679
vt 0.420046 0.857679
vt 0.298709 0.859521
vt 0.298709 0.734249
vt 0.562474 0.456946
vt 0.562474 0.396298
vt 0.660161 0.458813
vt 0.294022 0.667071
vt 0.294022 0.792343
vt 0.233374 0.792343
vt 0.344129 0.734249
vn 0.000000 0.000000 1.000000
vn 0.000000 0.000000 1.000000
vn 0.000000 0.000000 1.000000
vn 0.000000 0.000000 1.000000
vn -1.000000 0.000000 0.000000
vn -1.000000 0.000000 0.000000
vn -1.000000 0.000000 0.000000
vn -1.000000 0.000000 0.000000
vn 0.000000 0.000000 -1.000000
vn 0.000000 0.000000 -1.000000
vn 0.000000 0.000000 -1.000000
vn 0.000000 0.000000 -1.000000
vn 1.000000 0.000000 0.000000
vn 1.000000 0.000000 0.000000
vn 1.000000 0.000000 0.000000
vn 1.000000 0.000000 0.000000
vn 0.000000 1.000000 0.000000
vn 0.000000 1.000000 0.000000
vn 0.000000 1.000000 0.000000
vn 0.000000 1.000000 0.000000
vn 0.000000 -1.000000 0.000000
vn 0.000000 -1.000000 0.000000
vn 0.000000 -1.000000 0.000000
vn 0.000000 -1.000000 0.000000
s off
g RobotCellOpen:Cube CellOpenParent
usemtl initialShadingGroup
f 3/2/1 4/21/2 2/22/3 1/23/4
f 4/10/5 6/11/6 5/12/7 2/13/8
f 6/5/9 8/6/10 7/14/11 5/15/12
f 8/1/13 3/16/14 1/17/15 7/24/16
f 8/7/17 6/8/18 4/18/19 3/19/20
f 1/3/21 2/4/22 5/9/23 7/20/24
g default
v 0.041840 0.046060 -0.501469
v -0.208580 0.046060 -0.501469
v 0.041840 0.570095 -0.501469
v -0.208580 0.570095 -0.501469
v -0.208580 0.046060 -0.691469
v -0.208580 0.570095 -0.691469
v 0.041840 0.046060 -0.691469
v 0.041840 0.570095 -0.691469
vt 0.323595 0.990041
vt 0.485381 0.736140
vt 0.566635 0.385519
vt 0.566635 0.325656
vt 0.349111 0.863077
vt 0.408974 0.863077
vt 0.712428 0.403615
vt 0.712428 0.463479
vt 0.612055 0.325656
vt 0.227774 0.799367
vt 0.273194 0.799367
vt 0.273194 0.924639
vt 0.227774 0.924639
vt 0.408974 0.988349
vt 0.349111 0.988349
vt 0.278176 0.990041
vt 0.278176 0.864769
vt 0.667009 0.463479
vt 0.667009 0.403616
vt 0.612055 0.385519
vt 0.545244 0.736140
vt 0.545244 0.861412
vt 0.485381 0.861412
vt 0.323595 0.864769
vn 0.000000 0.000000 1.000000
vn 0.000000 0.000000 1.000000
vn 0.000000 0.000000 1.000000
vn 0.000000 0.000000 1.000000
vn -1.000000 0.000000 0.000000
vn -1.000000 0.000000 0.000000
vn -1.000000 0.000000 0.000000
vn -1.000000 0.000000 0.000000
vn 0.000000 0.000000 -1.000000
vn 0.000000 0.000000 -1.000000
vn 0.000000 0.000000 -1.000000
vn 0.000000 0.000000 -1.000000
vn 1.000000 0.000000 0.000000
vn 1.000000 0.000000 0.000000
vn 1.000000 0.000000 0.000000
vn 1.000000 0.000000 0.000000
vn 0.000000 1.000000 0.000000
vn 0.000000 1.000000 0.000000
vn 0.000000 1.000000 0.000000
vn 0.000000 1.000000 0.000000
vn 0.000000 -1.000000 0.000000
vn 0.000000 -1.000000 0.000000
vn 0.000000 -1.000000 0.000000
vn 0.000000 -1.000000 0.000000
s off
g CellOpenParent RobotCellOpen:Cube_1_
usemtl initialShadingGroup
f 11/26/25 12/45/26 10/46/27 9/47/28
f 12/34/29 14/35/30 13/36/31 10/37/32
f 14/29/33 16/30/34 15/38/35 13/39/36
f 16/25/37 11/40/38 9/41/39 15/48/40
f 16/31/41 14/32/42 12/42/43 11/43/44
f 9/27/45 10/28/46 13/33/47 15/44/48
g default
v 0.293193 0.569120 -0.499469
v -0.209498 0.569120 -0.499469
v 0.293193 0.749594 -0.499469
v -0.209498 0.749594 -0.499469
v -0.209498 0.569120 -0.689469
v -0.209498 0.749594 -0.689469
v 0.293193 0.569120 -0.689469
v 0.293193 0.749594 -0.689469
vt 0.712445 0.324550
vt 0.461322 0.864773
vt 0.565648 0.998008
vt 0.565648 0.877838
vt 0.509856 0.866640
vt 0.509856 0.986809
vt 0.560668 0.875971
vt 0.560668 0.996141
vt 0.611068 0.877838
vt 0.662045 0.324550
vt 0.662045 0.369970
vt 0.618902 0.369970
vt 0.618902 0.324550
vt 0.466714 0.986809
vt 0.466714 0.866640
vt 0.712445 0.369970
vt 0.669302 0.369970
vt 0.515248 0.996141
vt 0.515248 0.875971
vt 0.611068 0.998008
vt 0.461322 0.984942
vt 0.418179 0.984942
vt 0.418179 0.864773
vt 0.669302 0.324550
vn 0.000000 0.000000 1.000000
vn 0.000000 0.000000 1.000000
vn 0.000000 0.000000 1.000000
vn 0.000000 0.000000 1.000000
vn -1.000000 0.000000 0.000000
vn -1.000000 0.000000 0.000000
vn -1.000000 0.000000 0.000000
vn -1.000000 0.000000 0.000000
vn 0.000000 0.000000 -1.000000
vn 0.000000 0.000000 -1.000000
vn 0.000000 0.000000 -1.000000
vn 0.000000 0.000000 -1.000000
vn 1.000000 0.000000 0.000000
vn 1.000000 0.000000 0.000000
vn 1.000000 0.000000 0.000000
vn 1.000000 0.000000 0.000000
vn 0.000000 1.000000 0.000000
vn 0.000000 1.000000 0.000000
vn 0.000000 1.000000 0.000000
vn 0.000000 1.000000 0.000000
vn 0.000000 -1.000000 0.000000
vn 0.000000 -1.000000 0.000000
vn 0.000000 -1.000000 0.000000
vn 0.000000 -1.000000 0.000000
s off
g CellOpenParent RobotCellOpen:Cube_2_
usemtl initialShadingGroup
f 19/50/49 20/69/50 18/70/51 17/71/52
f 20/58/53 22/59/54 21/60/55 18/61/56
f 22/53/57 24/54/58 23/62/59 21/63/60
f 24/49/61 19/64/62 17/65/63 23/72/64
f 24/55/65 22/56/66 20/66/67 19/67/68
f 17/51/69 18/52/70 21/57/71 23/68/72
g default
v 0.538522 0.000000 0.289531
v -0.461478 0.000000 0.289531
v 0.538522 1.000000 0.289531
v -0.461478 1.000000 0.289531
v -0.461478 0.000000 -0.710469
v -0.461478 1.000000 -0.710469
v -0.211478 0.043127 -0.710670
v -0.211478 0.750000 -0.710469
v -0.211478 0.000000 -0.710469
v 0.538522 0.000000 -0.710469
v 0.288522 0.043838 -0.710569
v 0.288522 0.000000 -0.710469
v 0.538522 1.000000 -0.710469
v 0.288522 0.750000 -0.710469
v 0.288522 0.750000 -0.623758
v -0.211478 0.750000 -0.623758
v -0.211478 0.043357 -0.623558
v 0.288522 0.043357 -0.623558
v 0.498064 0.913624 -0.623758
v 0.498064 0.913624 0.173516
v -0.426407 0.913624 -0.623758
v -0.426407 0.913624 0.173516
v -0.426407 0.042910 0.173516
v 0.498064 0.042910 0.173516
v 0.498064 0.042910 -0.623758
v -0.426407 0.042910 -0.623758
v 0.272285 0.000000 0.289531
v 0.261455 1.000000 0.289531
v 0.292755 1.000000 -0.710469
v -0.215737 1.000000 -0.710469
v -0.219340 1.000000 0.289531
v -0.215317 0.000000 0.289531
v -0.461478 0.043298 -0.710469
v -0.461478 0.042993 0.289531
v -0.215493 0.043585 0.289531
v 0.271801 0.044758 0.289531
v 0.538522 0.045401 0.289531
v 0.538522 0.048295 -0.710469
v 0.538522 0.748822 -0.710469
v 0.538522 0.751157 0.289531
v 0.264141 0.752006 0.289531
v -0.218348 0.753499 0.289531
v -0.461478 0.754251 0.289531
v -0.461478 0.746673 -0.710469
v -0.426407 0.754829 -0.623758
v -0.426407 0.747750 0.173516
v 0.498064 0.731860 0.173516
v 0.498064 0.754331 -0.623758
v -0.214115 0.913624 -0.623758
v -0.182373 0.913624 0.173516
v -0.179320 0.743503 0.173516
v -0.198611 0.042910 0.173516
v 0.293178 0.913624 -0.623758
v 0.286031 0.913624 0.173516
v 0.286085 0.735503 0.173516
v 0.286297 0.042910 0.173516
vt 0.428608 0.002465
vt 0.428608 0.241524
vt 0.260470 0.242798
vt 0.258585 0.003753
vt 0.326956 0.484366
vt 0.327648 0.245314
vt 0.667579 0.002026
vt 0.675015 0.241079
vt 0.061664 0.004409
vt 0.181186 0.003487
vt 0.179149 0.242562
vt 0.487332 0.550212
vt 0.367806 0.550212
vt 0.366788 0.490449
vt 0.488344 0.490449
vt 0.487332 0.729502
vt 0.367806 0.729502
vt 0.367806 0.719192
vt 0.487332 0.719022
vt 0.547095 0.550494
vt 0.547095 0.717957
vt 0.638644 0.997971
vt 0.617915 0.997971
vt 0.755321 0.302704
vt 0.952996 0.242940
vt 0.248594 0.495156
vt 0.248727 0.664167
vt 0.254002 0.494509
vt 0.755321 0.422228
vt 0.749616 0.686159
vt 0.222915 0.898857
vt 0.001902 0.898865
vt 0.734497 0.422228
vt 0.734497 0.302704
vt 0.755273 0.472318
vt 0.756918 0.688835
vt 0.755273 0.251325
vt 0.744850 0.242940
vt 0.744850 0.021943
vt 0.945860 0.251325
vt 0.222897 0.708268
vt 0.001910 0.701348
vt 0.952996 0.021943
vt 0.952889 0.073323
vt 0.001910 0.708278
vt 0.945860 0.472318
vt 0.222893 0.701359
vt 0.222908 0.493209
vt 0.001902 0.493200
vt 0.783965 0.073323
vt 0.749629 0.478011
vt 0.559028 0.478002
vt 0.783965 0.192849
vt 0.952889 0.192849
vt 0.947505 0.480678
vt 0.756897 0.480692
vt 0.559039 0.686149
vt 0.947496 0.688821
vt 0.495111 0.245314
vt 0.495669 0.484366
vt 0.553459 0.241056
vt 0.552644 0.002003
vt 0.062590 0.243461
vt 0.240947 0.003026
vt 0.242791 0.242071
vt 0.236964 0.428743
vt 0.121624 0.429100
vt 0.122307 0.259394
vt 0.238796 0.259674
vt 0.274711 0.663345
vt 0.617916 0.878446
vt 0.227996 0.664145
vt 0.227774 0.495232
vt 0.274723 0.494515
vt 0.638644 0.878446
vt 0.253908 0.663455
vt 0.003746 0.243915
vt 0.302556 0.428540
vt 0.733813 0.002038
vt 0.302556 0.259828
vt 0.733767 0.241091
vt 0.308043 0.551008
vt 0.494714 0.241045
vt 0.308043 0.719151
vt 0.494761 0.001992
vt 0.063504 0.429280
vt 0.001902 0.004870
vt 0.063504 0.259252
vt 0.250120 0.242877
vt 0.308043 0.729502
vt 0.248308 0.003831
vt 0.063504 0.248974
vt 0.122349 0.248974
vt 0.238911 0.248974
vt 0.316103 0.245314
vt 0.302556 0.248974
vt 0.316103 0.484366
vt 0.547095 0.729502
vt 0.547095 0.490449
vt 0.555155 0.245314
vt 0.308043 0.490449
vt 0.555155 0.484366
vt 0.236322 0.488027
vt 0.302556 0.488027
vt 0.121387 0.488027
vt 0.489165 0.241065
vt 0.063504 0.488027
vt 0.487354 0.002020
vt 0.052528 0.493202
vt 0.782810 0.021943
vt 0.947498 0.650862
vt 0.222896 0.661706
vt 0.756914 0.649183
vt 0.001908 0.657896
vt 0.749619 0.642708
vt 0.782929 0.242940
vt 0.559037 0.648070
vt 0.052657 0.708276
vt 0.744850 0.072692
vt 0.060243 0.898863
vt 0.164560 0.701356
vt 0.163832 0.660688
vt 0.945860 0.305779
vt 0.168450 0.493207
vt 0.173921 0.708270
vt 0.744850 0.193962
vt 0.172224 0.898859
vt 0.052594 0.701350
vt 0.052580 0.658770
vt 0.945860 0.421696
vn -1.000000 0.000000 0.000000
vn -1.000000 0.000000 0.000000
vn -1.000000 0.000000 0.000000
vn -1.000000 0.000000 0.000000
vn 1.000000 0.000000 0.000000
vn 1.000000 0.000000 0.000000
vn 1.000000 0.000000 0.000000
vn 1.000000 0.000000 0.000000
vn 0.000000 1.000000 0.000000
vn 0.000000 1.000000 0.000000
vn 0.000000 1.000000 0.000000
vn 0.000000 1.000000 0.000000
vn 0.000000 -1.000000 0.000000
vn 0.000000 -1.000000 0.000000
vn 0.000000 -1.000000 0.000000
vn 0.000000 -1.000000 0.000000
vn 0.000000 0.000000 1.000000
vn 0.000000 0.000000 1.000000
vn 0.000000 0.000000 1.000000
vn 0.000000 0.000000 1.000000
vn 0.000097 0.000034 -1.000000
vn -0.000193 0.000068 -1.000000
vn 0.000000 0.000000 -1.000000
vn 0.000000 0.000000 -1.000000
vn 0.000000 -1.000000 0.000001
vn 0.000000 -1.000000 0.000001
vn 0.000000 -1.000000 0.000001
vn 0.000000 -1.000000 0.000001
vn -0.000712 0.999999 0.001443
vn -0.000712 0.999999 0.001443
vn -0.000712 0.999999 0.001443
vn -0.000712 0.999999 0.001443
vn 1.000000 0.000000 0.000000
vn 1.000000 0.000000 0.000000
vn 1.000000 0.000000 0.000000
vn 1.000000 0.000000 0.000000
vn -1.000000 0.000000 0.000000
vn -1.000000 0.000000 0.000000
vn -1.000000 0.000000 0.000000
vn -1.000000 0.000000 0.000000
vn 0.000000 -1.000000 0.000000
vn 0.000000 -1.000000 0.000000
vn 0.000000 -1.000000 0.000000
vn 0.000000 -1.000000 0.000000
vn -0.000308 1.000000 0.000477
vn -0.000317 1.000000 0.000474
vn -0.001008 0.999999 0.000288
vn -0.001008 0.999999 0.000288
vn 1.000000 0.000000 0.000000
vn 1.000000 0.000000 0.000000
vn 1.000000 0.000000 0.000000
vn 1.000000 0.000000 0.000000
vn -0.000264 0.000080 1.000000
vn -0.000376 0.000114 1.000000
vn -0.000463 0.000141 1.000000
vn -0.000463 0.000141 1.000000
vn 0.000000 0.000000 -1.000000
vn 0.000000 0.000000 -1.000000
vn -0.000000 0.000000 -1.000000
vn -0.000000 0.000000 -1.000000
vn 0.000103 -0.003467 -0.999994
vn 0.000103 -0.003467 -0.999994
vn 0.000103 -0.003467 -0.999994
vn 0.000103 -0.003467 -0.999994
vn -1.000000 0.000001 0.000000
vn -1.000000 0.000001 0.000000
vn -1.000000 0.000001 0.000000
vn -1.000000 0.000001 0.000000
vn 0.000000 -1.000000 0.000000
vn 0.000000 -1.000000 0.000000
vn 0.000000 0.000000 1.000000
vn 0.000000 0.000000 1.000000
vn 0.000000 1.000000 0.000000
vn 0.000000 1.000000 0.000000
vn 0.000149 0.000053 -1.000000
vn 0.000201 0.000002 -1.000000
vn 0.000201 -0.000002 -1.000000
vn -0.000299 0.000106 -1.000000
vn -0.000403 -0.000000 -1.000000
vn -0.000403 0.000000 -1.000000
vn 0.000000 1.000000 0.000000
vn 0.000000 1.000000 0.000000
vn 0.000000 0.000000 1.000000
vn 0.000000 0.000000 1.000000
vn 0.000000 -1.000000 0.000000
vn 0.000000 -1.000000 0.000000
vn -0.000403 -0.002326 -0.999997
vn -0.000403 -0.002326 -0.999997
vn -1.000000 0.000000 0.000000
vn -1.000000 0.000000 0.000000
vn 0.000000 0.000000 1.000000
vn 0.000000 0.000000 1.000000
vn 0.000000 0.000000 1.000000
vn 0.000000 0.000000 1.000000
vn 1.000000 0.000000 0.000000
vn 1.000000 0.000000 0.000000
vn 0.000211 -0.001091 -0.999999
vn 0.000211 -0.001091 -0.999999
vn 0.000000 0.000000 -1.000000
vn 1.000000 0.000000 0.000000
vn 1.000000 0.000000 0.000000
vn 0.000000 0.000000 1.000000
vn 0.000000 0.000000 1.000000
vn 0.000000 0.000000 1.000000
vn 0.000000 0.000000 1.000000
vn -1.000000 0.000000 0.000000
vn -1.000000 0.000000 0.000000
vn 0.000000 0.000000 -1.000000
vn 0.000475 0.000141 1.000000
vn 0.000386 0.000114 1.000000
vn 0.000268 0.000079 1.000000
vn 0.000475 0.000141 1.000000
vn 1.000000 0.000000 0.000000
vn 1.000000 0.000000 0.000000
vn 0.000000 0.000000 -1.000000
vn 0.000000 0.000000 -1.000000
vn -1.000000 0.000000 0.000000
vn -1.000000 0.000000 0.000000
vn 0.000000 0.000000 1.000000
vn 0.000000 0.000000 1.000000
vn 0.000000 0.000000 1.000000
vn 0.000000 -1.000000 -0.000000
vn 0.000000 -1.000000 -0.000000
vn 0.000000 0.000000 -1.000000
vn 0.000000 0.000000 -1.000000
vn 0.000000 0.000000 -1.000000
vn 0.000317 1.000000 0.000477
vn 0.000318 1.000000 0.000476
vn 0.000000 0.000000 1.000000
vn 0.000000 -1.000000 -0.000000
vn 0.000000 -1.000000 -0.000000
vn 0.000000 0.000000 -1.000000
vn 0.000000 0.000000 -1.000000
vn 0.000000 0.000000 -1.000000
vn 0.001060 0.999999 0.000281
vn 0.001060 0.999999 0.000281
s 1
g CellOpenParent RobotCellOpen:RobotCell_5_
usemtl initialShadingGroup
f 67/73/73 68/74/74 57/75/75 58/76/76
s 2
f 61/77/77 62/78/78 63/131/79 64/132/80
s 3
f 52/79/81 53/80/82 54/133/83 55/134/84
s 4
f 33/81/85 36/82/86 51/83/87 56/135/88
s 5
f 65/138/89 66/139/90 59/140/91 60/141/92
s 6
f 38/84/93 32/85/94 54/86/95 53/87/96
s off
f 40/94/97 32/95/98 38/143/99 39/147/100
f 41/96/101 42/101/102 35/105/103 31/106/104
f 31/98/105 32/99/106 40/144/107 41/145/108
s 7
f 71/187/109 72/189/110 49/124/111 48/123/112
s 8
f 73/190/113 74/192/114 46/104/115 45/117/116
s 9
f 76/195/117 41/96/118 50/109/119 47/112/120
s 10
f 50/127/121 69/183/122 70/185/123 47/128/124
s 11
f 40/122/125 69/182/126 50/115/127 41/116/128
s 12
f 75/194/129 76/196/130 47/120/131 70/184/132
s off
f 36/88/133 33/89/134 31/90/135 35/91/136
f 39/100/137 38/146/138 35/142/139 42/148/140
s 4
f 51/83/87 36/82/86 34/136/141 25/137/142
s 5
f 64/150/143 65/138/89 60/141/92 61/152/144
s 3
f 27/151/145 37/153/146 53/80/82 52/79/81
s 6
f 38/84/93 63/92/147 62/93/148 35/91/149
f 68/154/150 32/85/94 31/90/151 57/156/152
s 3
f 55/134/84 54/133/83 30/155/153 28/157/154
s 5
f 66/139/90 67/158/155 58/160/156 59/140/91
s 4
f 33/81/85 56/135/88 26/149/157 29/159/158
s 6
f 57/156/152 31/90/151 33/89/159 29/162/160
s 1
f 58/76/76 57/75/75 29/161/161 26/163/162
s 5
f 59/140/91 58/160/156 26/164/163 56/165/164
f 60/141/92 59/140/91 56/165/164 51/166/165
f 61/152/144 60/141/92 51/166/165 25/168/166
s 2
f 34/167/167 62/78/78 61/77/77 25/169/168
s 6
f 35/91/149 62/93/148 34/170/169 36/88/170
f 38/84/93 53/87/96 37/171/171 63/92/147
s 2
f 64/132/80 63/131/79 37/172/172 27/174/173
s 5
f 52/175/174 65/138/89 64/150/143 27/176/175
f 55/177/176 66/139/90 65/138/89 52/175/174
f 28/179/177 67/158/155 66/139/90 55/177/176
s 1
f 30/178/178 68/74/74 67/73/73 28/180/179
s 6
f 54/86/95 32/85/94 68/154/150 30/173/180
s 11
f 49/97/181 72/188/182 39/125/183 42/126/184
s 10
f 70/185/123 69/183/122 45/130/185 46/108/186
s 12
f 74/193/187 75/194/129 70/184/132 46/119/188
s 7
f 44/102/189 43/129/190 72/189/110 71/187/109
s 11
f 40/122/125 73/191/191 45/111/192 69/182/126
f 39/125/183 77/198/193 73/191/191 40/122/125
s 8
f 77/197/194 78/199/195 74/192/114 73/190/113
s 12
f 78/200/196 79/201/197 75/194/129 74/193/187
f 79/201/197 80/181/198 76/196/130 75/194/129
s 9
f 80/202/199 42/101/200 41/96/118 76/195/117
s 11
f 39/125/183 72/188/182 43/110/201 77/198/193
s 8
f 44/103/202 78/199/195 77/197/194 43/113/203
s 12
f 71/186/204 79/201/197 78/200/196 44/114/205
f 48/121/206 80/181/198 79/201/197 71/186/204
s 9
f 49/107/207 42/101/200 80/202/199 48/118/208
