# This file uses centimeters as units for non-parametric coordinates.

mtllib DoorPieceTwo.mtl
g default
v -3.638572 -0.382428 0.500000
v 3.859742 -0.382428 0.500000
v -3.638572 8.364393 0.500000
v 3.859742 8.364393 0.500000
v -3.638572 8.364393 -0.500000
v 3.859742 8.364393 -0.500000
v -3.638572 -0.382428 -0.500000
v 3.859742 -0.382428 -0.500000
v -2.525483 8.364393 0.500000
v -2.525483 8.364393 -0.500000
v -2.525483 -0.382428 -0.500000
v -2.525483 -0.382428 0.500000
v -3.638572 7.501687 0.500000
v -3.638572 7.501687 -0.500000
v -2.525483 7.501687 -0.500000
v 3.859742 7.501687 -0.500000
v 3.859742 7.501687 0.500000
v -2.525483 7.501687 0.500000
v -3.638572 4.254704 0.500000
v -3.638572 4.254704 -0.500000
v -2.525483 4.254704 -0.500000
v 3.859742 4.254704 -0.500000
v 3.859742 4.254704 0.500000
v -2.525483 4.254704 0.500000
v 2.734231 8.364393 0.500000
v 2.734231 8.364393 -0.500000
v 2.734231 7.501687 -0.500000
v 2.734231 4.254704 -0.500000
v 2.734231 -0.382428 -0.500000
v 2.734231 -0.382428 0.500000
v 2.734231 4.254704 0.500000
v 2.734231 7.501687 0.500000
v -3.638572 3.343110 0.500000
v -3.638572 3.343110 -0.500000
v -2.525483 3.343110 -0.500000
v 2.734231 3.343110 -0.500000
v 3.859742 3.343110 -0.500000
v 3.859742 3.343110 0.500000
v 2.734231 3.343110 0.500000
v -2.525483 3.343110 0.500000
v -3.638572 0.189653 0.500000
v -3.638572 0.189653 -0.500000
v -2.525483 0.189653 -0.500000
v 2.734231 0.189653 -0.500000
v 3.859742 0.189653 -0.500000
v 3.859742 0.189653 0.500000
v 2.734231 0.189653 0.500000
v -2.525484 0.189653 0.500000
v -2.525483 4.254704 0.202268
v -2.525483 7.501687 0.202268
v 2.734231 4.254704 0.202268
v 2.734231 7.501687 0.202268
v -2.525484 0.189653 0.202268
v -2.525483 3.343110 0.202268
v 2.734231 0.189653 0.202268
v 2.734231 3.343110 0.202268
v -2.525483 4.254704 -0.248506
v 2.734231 4.254704 -0.248506
v -2.525483 7.501687 -0.248506
v 2.734231 7.501687 -0.248506
v -2.525483 0.189653 -0.248506
v 2.734231 0.189653 -0.248506
v -2.525483 3.343110 -0.248506
v 2.734231 3.343110 -0.248506
vt 0.118337 0.488429
vt 0.057611 0.488429
vt 0.674672 0.001941
vt 0.674672 0.063855
vt 0.619049 0.063855
vt 0.619049 0.001941
vt 0.737357 0.001941
vt 0.157225 0.428199
vt 0.737357 0.063855
vt 0.125404 0.420852
vt 0.001992 0.488429
vt 0.001992 0.456610
vt 0.062719 0.488429
vt 0.062719 0.456610
vt 0.674672 0.356418
vt 0.619049 0.356418
vt 0.681734 0.063855
vt 0.125404 0.358938
vt 0.681734 0.001941
vt 0.118337 0.456610
vt 0.118337 0.049923
vt 0.157225 0.490113
vt 0.086225 0.676890
vt 0.125404 0.490113
vt 0.057611 0.456610
vt 0.057611 0.049923
vt 0.064677 0.676652
vt 0.062719 0.049923
vt 0.062719 0.001940
vt 0.125404 0.428199
vt 0.979488 0.597477
vt 0.157225 0.782677
vt 0.001992 0.049923
vt 0.001992 0.001940
vt 0.981447 0.297763
vt 0.674672 0.419023
vt 0.619049 0.419023
vt 0.973888 0.007161
vt 0.979488 0.304915
vt 0.737357 0.356418
vt 0.157225 0.358938
vt 0.681734 0.356418
vt 0.981447 0.005202
vt 0.059690 0.496045
vt 0.118337 0.001940
vt 0.118337 0.230516
vt 0.125404 0.782677
vt 0.001992 0.971920
vt 0.035568 0.796191
vt 0.611933 0.428199
vt 0.057611 0.001940
vt 0.057611 0.230516
vt 0.059690 0.683980
vt 0.064677 0.859384
vt 0.062719 0.230516
vt 0.118337 0.281218
vt 0.611933 0.490113
vt 0.023540 0.789450
vt 0.023540 0.496889
vt 0.563946 0.490113
vt 0.001992 0.230516
vt 0.057611 0.281218
vt 0.001992 0.789451
vt 0.001992 0.496889
vt 0.064677 0.496045
vt 0.998008 0.005202
vt 0.998008 0.297763
vt 0.059690 0.676652
vt 0.064677 0.683980
vt 0.018553 0.496889
vt 0.018553 0.789451
vt 0.059690 0.859385
vt 0.993477 0.304915
vt 0.993477 0.597477
vt 0.086225 0.496307
vt 0.973888 0.299722
vt 0.037529 0.496889
vt 0.037529 0.789450
vt 0.001992 0.796537
vt 0.035568 0.971574
vt 0.157225 0.420852
vt 0.125404 0.066374
vt 0.157225 0.066374
vt 0.611933 0.358938
vt 0.563946 0.358938
vt 0.563946 0.066374
vt 0.611933 0.066374
vt 0.563946 0.420852
vt 0.611933 0.420852
vt 0.383337 0.420852
vt 0.383337 0.358938
vt 0.737357 0.419023
vt 0.681734 0.419023
vt 0.125404 0.003769
vt 0.157225 0.003769
vt 0.383337 0.066374
vt 0.383337 0.003769
vt 0.563946 0.003769
vt 0.611933 0.003769
vt 0.563946 0.428199
vt 0.563946 0.782677
vt 0.611933 0.782677
vt 0.383337 0.490113
vt 0.332631 0.066374
vt 0.332631 0.003769
vt 0.332631 0.358938
vt 0.332631 0.420852
vt 0.383337 0.428199
vt 0.563946 0.845282
vt 0.611933 0.845282
vt 0.383337 0.845282
vt 0.383337 0.782677
vt 0.157225 0.845282
vt 0.125404 0.845282
vt 0.043129 0.683980
vt 0.043129 0.859385
vt 0.081238 0.859384
vt 0.081238 0.683980
vt 0.332631 0.490113
vt 0.332631 0.428199
vt 0.332631 0.782677
vt 0.332631 0.845282
vt 0.925028 0.002405
vt 0.925028 0.294968
vt 0.744419 0.294968
vt 0.744419 0.002405
vt 0.981836 0.894355
vt 0.801227 0.894355
vt 0.801227 0.601792
vt 0.981836 0.601792
vt 0.919825 0.301682
vt 0.919825 0.594245
vt 0.744419 0.594245
vt 0.744419 0.301682
vt 0.794455 0.892834
vt 0.619049 0.892834
vt 0.619049 0.600271
vt 0.794455 0.600271
vt 0.001992 0.281218
vt 0.062719 0.281218
vt 0.952340 0.006691
vt 0.952340 0.299253
vt 0.938351 0.299253
vt 0.938351 0.006691
vt 0.021581 0.971574
vt 0.021581 0.796191
vt 0.015979 0.796537
vt 0.015979 0.971920
vt 0.117843 0.682403
vt 0.117843 0.862986
vt 0.103856 0.862986
vt 0.103856 0.682403
vt 0.959899 0.299722
vt 0.959899 0.007161
vt 0.100212 0.496307
vt 0.100212 0.676890
vt 0.972542 0.306874
vt 0.972542 0.599436
vt 0.955981 0.599436
vt 0.955981 0.306874
vt 0.043129 0.676652
vt 0.043129 0.496045
vt 0.081238 0.496045
vt 0.081238 0.676652
vt 0.949035 0.306874
vt 0.949035 0.599438
vt 0.932474 0.599438
vt 0.932474 0.306874
vn 0.000000 0.000000 1.000000
vn 0.000000 0.000000 1.000000
vn 0.000000 0.000000 1.000000
vn 0.000000 0.000000 1.000000
vn 0.000000 1.000000 0.000000
vn 0.000000 1.000000 0.000000
vn 0.000000 1.000000 0.000000
vn 0.000000 1.000000 0.000000
vn 0.000000 0.000000 -1.000000
vn 0.000000 0.000000 -1.000000
vn 0.000000 0.000000 -1.000000
vn 0.000000 0.000000 -1.000000
vn 0.000000 -1.000000 0.000000
vn 0.000000 -1.000000 0.000000
vn 0.000000 -1.000000 0.000000
vn 0.000000 -1.000000 0.000000
vn 1.000000 0.000000 0.000000
vn 1.000000 0.000000 0.000000
vn 1.000000 0.000000 0.000000
vn 1.000000 0.000000 0.000000
vn -1.000000 0.000000 0.000000
vn -1.000000 0.000000 0.000000
vn -1.000000 0.000000 0.000000
vn -1.000000 0.000000 0.000000
vn 0.000000 1.000000 0.000000
vn 0.000000 1.000000 0.000000
vn 0.000000 0.000000 -1.000000
vn 0.000000 0.000000 -1.000000
vn 0.000000 -1.000000 0.000000
vn 0.000000 -1.000000 0.000000
vn 0.000000 0.000000 1.000000
vn 0.000000 0.000000 1.000000
vn -1.000000 0.000000 0.000000
vn -1.000000 0.000000 0.000000
vn -1.000000 0.000000 0.000000
vn -1.000000 0.000000 0.000000
vn 0.000000 0.000000 -1.000000
vn 0.000000 0.000000 -1.000000
vn 0.000000 0.000000 -1.000000
vn 0.000000 0.000000 -1.000000
vn 0.000000 0.000000 -1.000000
vn 0.000000 0.000000 -1.000000
vn 1.000000 0.000000 0.000000
vn 1.000000 0.000000 0.000000
vn 1.000000 0.000000 0.000000
vn 1.000000 0.000000 0.000000
vn 0.000000 0.000000 1.000000
vn 0.000000 0.000000 1.000000
vn 0.000000 0.000000 1.000000
vn 0.000000 0.000000 1.000000
vn 0.000000 0.000000 1.000000
vn 0.000000 0.000000 1.000000
vn -1.000000 0.000000 0.000000
vn -1.000000 0.000000 0.000000
vn 0.000000 0.000000 -1.000000
vn 0.000000 0.000000 -1.000000
vn 0.000000 0.000000 -1.000000
vn 0.000000 0.000000 -1.000000
vn 0.000000 0.000000 -1.000000
vn 0.000000 0.000000 -1.000000
vn 1.000000 0.000000 0.000000
vn 1.000000 0.000000 0.000000
vn 0.000000 0.000000 1.000000
vn 0.000000 0.000000 1.000000
vn 0.000000 0.000000 1.000000
vn 0.000000 0.000000 1.000000
vn 0.000000 0.000000 1.000000
vn 0.000000 0.000000 1.000000
vn 0.000000 1.000000 0.000000
vn 0.000000 1.000000 0.000000
vn 0.000000 0.000000 -1.000000
vn 0.000000 0.000000 -1.000000
vn 0.000000 0.000000 -1.000000
vn 0.000000 0.000000 -1.000000
vn 0.000000 0.000000 -1.000000
vn 0.000000 0.000000 -1.000000
vn 0.000000 -1.000000 0.000000
vn 0.000000 -1.000000 0.000000
vn 0.000000 0.000000 1.000000
vn 0.000000 0.000000 1.000000
vn 0.000000 0.000000 1.000000
vn 0.000000 0.000000 1.000000
vn 0.000000 0.000000 1.000000
vn 0.000000 0.000000 1.000000
vn -1.000000 0.000000 0.000000
vn -1.000000 0.000000 0.000000
vn 0.000000 0.000000 -1.000000
vn 0.000000 0.000000 -1.000000
vn 0.000000 0.000000 -1.000000
vn 0.000000 0.000000 -1.000000
vn 1.000000 0.000000 0.000000
vn 1.000000 0.000000 0.000000
vn 0.000000 0.000000 1.000000
vn 0.000000 0.000000 1.000000
vn 0.000000 0.000000 1.000000
vn 0.000000 0.000000 1.000000
vn 0.000000 0.000000 -1.000000
vn 0.000000 0.000000 -1.000000
vn 0.000000 0.000000 -1.000000
vn 0.000000 0.000000 -1.000000
vn 0.000000 0.000000 1.000000
vn 0.000000 0.000000 1.000000
vn 0.000000 0.000000 1.000000
vn 0.000000 0.000000 1.000000
vn 1.000000 0.000000 0.000000
vn 1.000000 0.000000 0.000000
vn 1.000000 0.000000 0.000000
vn 1.000000 0.000000 0.000000
vn 0.000000 1.000000 0.000000
vn 0.000000 1.000000 0.000000
vn 0.000000 1.000000 0.000000
vn 0.000000 1.000000 0.000000
vn -1.000000 0.000000 0.000000
vn -1.000000 0.000000 0.000000
vn -1.000000 0.000000 0.000000
vn -1.000000 0.000000 0.000000
vn 0.000000 -1.000000 0.000000
vn 0.000000 -1.000000 0.000000
vn 0.000000 -1.000000 0.000000
vn 0.000000 -1.000000 0.000000
vn 1.000000 -0.000000 0.000000
vn 1.000000 -0.000000 0.000000
vn 1.000000 -0.000000 0.000000
vn 1.000000 -0.000000 0.000000
vn 0.000000 1.000000 0.000000
vn 0.000000 1.000000 0.000000
vn 0.000000 1.000000 0.000000
vn 0.000000 1.000000 0.000000
vn -1.000000 0.000000 0.000000
vn -1.000000 0.000000 0.000000
vn -1.000000 0.000000 0.000000
vn -1.000000 0.000000 0.000000
vn 0.000000 -1.000000 0.000000
vn 0.000000 -1.000000 0.000000
vn 0.000000 -1.000000 0.000000
vn 0.000000 -1.000000 0.000000
vn 0.000000 1.000000 0.000000
vn 0.000000 1.000000 0.000000
vn 0.000000 1.000000 0.000000
vn 0.000000 1.000000 0.000000
vn 1.000000 0.000000 0.000000
vn 1.000000 0.000000 0.000000
vn 1.000000 0.000000 0.000000
vn 1.000000 0.000000 0.000000
vn 0.000000 -1.000000 0.000000
vn 0.000000 -1.000000 0.000000
vn 0.000000 -1.000000 0.000000
vn 0.000000 -1.000000 0.000000
vn -1.000000 0.000000 0.000000
vn -1.000000 0.000000 0.000000
vn -1.000000 0.000000 0.000000
vn -1.000000 0.000000 0.000000
vn 0.000000 1.000000 0.000000
vn 0.000000 1.000000 0.000000
vn 0.000000 1.000000 0.000000
vn 0.000000 1.000000 0.000000
vn 1.000000 0.000000 0.000000
vn 1.000000 0.000000 0.000000
vn 1.000000 0.000000 0.000000
vn 1.000000 0.000000 0.000000
vn 0.000000 -1.000000 0.000000
vn 0.000000 -1.000000 0.000000
vn 0.000000 -1.000000 0.000000
vn 0.000000 -1.000000 0.000000
vn -1.000000 0.000000 0.000000
vn -1.000000 0.000000 0.000000
vn -1.000000 0.000000 0.000000
vn -1.000000 0.000000 0.000000
s 1
g pCube2
usemtl initialShadingGroup
f 1/10/1 12/18/2 48/41/3 41/81/4
s 2
f 3/3/5 9/4/6 10/5/7 5/6/8
s 3
f 42/8/9 43/22/10 11/24/11 7/30/12
s 4
f 7/7/13 11/9/14 12/17/15 1/19/16
s 5
f 2/2/17 8/11/18 45/12/19 46/25/20
s 6
f 7/1/21 1/13/22 41/14/23 42/20/24
s 2
f 9/4/6 25/15/25 26/16/26 10/5/7
s 3
f 11/24/11 43/22/10 44/32/27 29/47/28
s 4
f 12/17/15 11/9/14 29/40/29 30/42/30
s 1
f 48/41/3 12/18/2 30/82/31 47/83/32
s 6
f 14/21/33 13/28/34 3/29/35 5/45/36
s 3
f 5/50/37 10/57/38 15/60/39 14/100/40
f 27/101/41 15/60/39 10/57/38 26/102/42
s 5
f 17/26/43 16/33/44 6/34/45 4/51/46
s 1
f 9/84/47 18/85/48 32/86/49 25/87/50
f 13/88/51 18/85/48 9/84/47 3/89/52
s 6
f 20/46/53 19/55/54 13/28/34 14/21/33
s 3
f 14/100/40 15/60/39 21/103/55 20/108/56
s off
f 58/123/57 57/124/58 59/125/59 60/126/60
s 5
f 23/52/61 22/61/62 16/33/44 17/26/43
s off
f 50/127/63 49/128/64 51/129/65 52/130/66
s 1
f 19/90/67 24/91/68 18/85/48 13/88/51
s 2
f 25/15/25 4/36/69 6/37/70 26/16/26
s 3
f 16/109/71 27/101/41 26/102/42 6/110/72
f 22/111/73 28/112/74 27/101/41 16/109/71
f 29/47/28 44/32/27 45/113/75 8/114/76
s 4
f 30/42/30 29/40/29 8/92/77 2/93/78
s 1
f 47/83/32 30/82/31 2/94/79 46/95/80
f 32/86/49 31/96/81 23/97/82 17/98/83
f 25/87/50 32/86/49 17/98/83 4/99/84
s 6
f 34/56/85 33/140/86 19/55/54 20/46/53
s 3
f 20/108/56 21/103/55 35/119/87 34/120/88
f 36/121/89 35/119/87 21/103/55 28/112/74
f 37/122/90 36/121/89 28/112/74 22/111/73
s 5
f 38/62/91 37/139/92 22/61/62 23/52/61
s 1
f 31/96/81 39/104/93 38/105/94 23/97/82
f 24/91/68 40/106/95 39/104/93 31/96/81
f 33/107/96 40/106/95 24/91/68 19/90/67
s 6
f 42/20/24 41/14/23 33/140/86 34/56/85
s 3
f 34/120/88 35/119/87 43/22/10 42/8/9
s off
f 62/131/97 61/132/98 63/133/99 64/134/100
s 3
f 45/113/75 44/32/27 36/121/89 37/122/90
s 5
f 46/25/20 45/12/19 37/139/92 38/62/91
s 1
f 39/104/93 47/83/32 46/95/80 38/105/94
s off
f 54/135/101 53/136/102 55/137/103 56/138/104
s 1
f 41/81/4 48/41/3 40/106/95 33/107/96
s off
f 18/27/105 24/65/106 49/163/107 50/164/108
f 24/35/109 31/43/110 51/66/111 49/67/112
f 31/44/113 32/68/114 52/161/115 51/162/116
f 32/157/117 18/158/118 50/159/119 52/160/120
f 40/54/121 48/69/122 53/118/123 54/117/124
f 48/63/125 47/64/126 55/70/127 53/71/128
f 47/53/129 39/72/130 56/116/131 55/115/132
f 39/165/133 40/166/134 54/167/135 56/168/136
f 28/31/137 21/39/138 57/73/139 58/74/140
f 21/23/141 15/75/142 59/155/143 57/156/144
f 15/38/145 27/76/146 60/153/147 59/154/148
f 27/149/149 28/150/150 58/151/151 60/152/152
f 44/58/153 43/59/154 61/77/155 62/78/156
f 43/48/157 35/79/158 63/147/159 61/148/160
f 35/141/161 36/142/162 64/143/163 63/144/164
f 36/49/165 44/80/166 62/145/167 64/146/168
